<svg width="32.000000" height="24.000000" viewBox="0 0 32 24" fill="none"
	xmlns="http://www.w3.org/2000/svg" xmlns:xlink="http://www.w3.org/1999/xlink">
	<desc>
		Created with Pixso.
	</desc>
	<defs />
	<path id="path (Border)"
		d="M1.47 4.62C1.76 4.74 2.06 4.79 2.39 4.79C2.73 4.79 3.03 4.74 3.32 4.62C3.6 4.5 3.86 4.33 4.09 4.09C4.33 3.86 4.5 3.6 4.62 3.32C4.74 3.03 4.8 2.73 4.8 2.4C4.8 2.06 4.74 1.76 4.62 1.47C4.5 1.19 4.33 0.93 4.09 0.7C3.86 0.46 3.6 0.29 3.32 0.17C3.03 0.05 2.73 0 2.39 0C2.06 0 1.76 0.05 1.47 0.17C1.19 0.29 0.93 0.46 0.7 0.7C0.46 0.93 0.29 1.19 0.17 1.47C0.05 1.76 0 2.06 0 2.4C0 2.73 0.05 3.03 0.17 3.32C0.29 3.6 0.46 3.86 0.7 4.09C0.93 4.33 1.19 4.5 1.47 4.62ZM30.4 0.8L9.6 0.8C8.7 0.8 8 1.5 8 2.4C8 3.29 8.7 4 9.59 4L30.39 4C31.29 4 32 3.29 32 2.4C32 1.5 31.29 0.8 30.4 0.8ZM2.09 1.65C2.18 1.61 2.28 1.59 2.39 1.59C2.51 1.59 2.61 1.61 2.7 1.65C2.8 1.69 2.88 1.75 2.96 1.83C3.04 1.91 3.1 1.99 3.14 2.09C3.18 2.18 3.19 2.28 3.19 2.4C3.19 2.51 3.18 2.61 3.14 2.7C3.1 2.8 3.04 2.88 2.96 2.96C2.88 3.04 2.8 3.1 2.7 3.14C2.61 3.18 2.51 3.2 2.39 3.2C2.28 3.2 2.18 3.18 2.09 3.14C1.99 3.1 1.91 3.04 1.83 2.96C1.75 2.88 1.69 2.8 1.65 2.7C1.61 2.61 1.6 2.51 1.6 2.4C1.6 2.28 1.61 2.18 1.65 2.09C1.69 1.99 1.75 1.91 1.83 1.83C1.91 1.75 1.99 1.69 2.09 1.65ZM1.47 14.22C1.76 14.34 2.06 14.4 2.39 14.4C2.73 14.4 3.03 14.34 3.32 14.22C3.6 14.1 3.86 13.93 4.09 13.69C4.33 13.46 4.5 13.2 4.62 12.92C4.74 12.63 4.8 12.33 4.8 12C4.8 11.66 4.74 11.36 4.62 11.07C4.5 10.79 4.33 10.53 4.09 10.3C3.86 10.06 3.6 9.89 3.32 9.77C3.03 9.65 2.73 9.59 2.39 9.59C2.06 9.59 1.76 9.65 1.47 9.77C1.19 9.89 0.93 10.06 0.7 10.3C0.46 10.53 0.29 10.79 0.17 11.07C0.05 11.36 0 11.66 0 12C0 12.33 0.05 12.63 0.17 12.92C0.29 13.2 0.46 13.46 0.7 13.69C0.93 13.93 1.19 14.1 1.47 14.22ZM9.6 10.4C8.7 10.4 8 11.1 8 12C8 12.89 8.7 13.6 9.59 13.6L30.39 13.6C31.29 13.6 32 12.89 32 12C32 11.1 31.29 10.4 30.4 10.4L9.6 10.4ZM2.09 11.25C2.18 11.21 2.28 11.2 2.39 11.2C2.51 11.2 2.61 11.21 2.7 11.25C2.8 11.29 2.88 11.35 2.96 11.43C3.04 11.51 3.1 11.59 3.14 11.69C3.18 11.78 3.19 11.88 3.19 12C3.19 12.11 3.18 12.21 3.14 12.3C3.1 12.4 3.04 12.48 2.96 12.56C2.88 12.64 2.8 12.7 2.7 12.74C2.61 12.78 2.51 12.8 2.39 12.8C2.28 12.8 2.18 12.78 2.09 12.74C1.99 12.7 1.91 12.64 1.83 12.56C1.75 12.48 1.69 12.4 1.65 12.3C1.61 12.21 1.6 12.11 1.6 12C1.6 11.88 1.61 11.78 1.65 11.69C1.69 11.59 1.75 11.51 1.83 11.43C1.91 11.35 1.99 11.29 2.09 11.25ZM1.47 23.82C1.76 23.94 2.06 24 2.39 24C2.73 24 3.03 23.94 3.32 23.82C3.6 23.7 3.86 23.53 4.09 23.29C4.33 23.06 4.5 22.8 4.62 22.52C4.74 22.23 4.8 21.93 4.8 21.6C4.8 21.26 4.74 20.96 4.62 20.67C4.5 20.39 4.33 20.13 4.09 19.9C3.86 19.66 3.6 19.49 3.32 19.37C3.03 19.25 2.73 19.2 2.39 19.2C2.06 19.2 1.76 19.25 1.47 19.37C1.19 19.49 0.93 19.66 0.7 19.9C0.46 20.13 0.29 20.39 0.17 20.67C0.05 20.96 0 21.26 0 21.6C0 21.93 0.05 22.23 0.17 22.52C0.29 22.8 0.46 23.06 0.7 23.29C0.93 23.53 1.19 23.7 1.47 23.82ZM9.6 20L30.4 20C31.29 20 32 20.7 32 21.6C32 22.49 31.29 23.2 30.39 23.2L9.59 23.2C8.7 23.2 8 22.49 8 21.6C8 20.7 8.7 20 9.6 20ZM2.09 20.85C2.18 20.81 2.28 20.8 2.39 20.8C2.51 20.8 2.61 20.81 2.7 20.85C2.8 20.89 2.88 20.95 2.96 21.03C3.04 21.11 3.1 21.19 3.14 21.29C3.18 21.38 3.19 21.48 3.19 21.6C3.19 21.71 3.18 21.81 3.14 21.9C3.1 22 3.04 22.08 2.96 22.16C2.88 22.24 2.8 22.3 2.7 22.34C2.61 22.38 2.51 22.4 2.39 22.4C2.28 22.4 2.18 22.38 2.09 22.34C1.99 22.3 1.91 22.24 1.83 22.16C1.75 22.08 1.69 22 1.65 21.9C1.61 21.81 1.6 21.71 1.6 21.6C1.6 21.48 1.61 21.38 1.65 21.29C1.69 21.19 1.75 21.11 1.83 21.03C1.91 20.95 1.99 20.89 2.09 20.85Z"
		fill="#0061AE" fill-opacity="1.000000" fill-rule="evenodd" />
</svg>